<svg xmlns="http://www.w3.org/2000/svg" width="60" height="282" viewBox="0 0 60 282"><g><g><path fill="#e8edc9" d="M30 105c16.568 0 30 13.431 30 30 0 16.569-13.432 30-30 30-16.569 0-30-13.431-30-30 0-16.569 13.431-30 30-30z"/></g><g><path fill="#a7c93d" d="M30 112c12.702 0 23 10.297 23 23 0 12.702-10.298 23-23 23-12.703 0-23-10.298-23-23 0-12.703 10.297-23 23-23z"/></g><g><path fill="#e8edc9" d="M30 222c16.568 0 30 13.431 30 30 0 16.569-13.432 30-30 30-16.569 0-30-13.431-30-30 0-16.569 13.431-30 30-30z"/></g><g><path fill="#a8ca3f" d="M30 229c12.702 0 23 10.297 23 23s-10.298 23-23 23c-12.703 0-23-10.297-23-23s10.297-23 23-23z"/></g><g><path fill="#e8edc9" d="M30 0c16.568 0 30 13.431 30 30 0 16.568-13.432 30-30 30C13.431 60 0 46.568 0 30 0 13.43 13.431 0 30 0z"/></g><g><path fill="#a7c93d" d="M30 7c12.702 0 23 10.297 23 23 0 12.702-10.298 23-23 23C17.297 53 7 42.702 7 30 7 17.297 17.297 7 30 7z"/></g><g><path fill="#aec3da" d="M30 175h1v7h-1zm0-107h1v.268l4 4.017-.711.715-3.29-3.304V74H30v-4.304L26.711 73l-.71-.715L30 68.268zm0 12h1v7h-1zm0 12h1v6h-1zm0 115h1v7h-1zm0-16h1v3h3v1h-3v3h-1v-3h-3v-1h3z"/></g></g></svg>